<?xml version="1.0" encoding="UTF-8" standalone="no"?>
<!-- Created with Inkscape (http://www.inkscape.org/) -->

<svg
   xmlns:dc="http://purl.org/dc/elements/1.1/"
   xmlns:cc="http://creativecommons.org/ns#"
   xmlns:rdf="http://www.w3.org/1999/02/22-rdf-syntax-ns#"
   xmlns:svg="http://www.w3.org/2000/svg"
   xmlns="http://www.w3.org/2000/svg"
   xmlns:sodipodi="http://sodipodi.sourceforge.net/DTD/sodipodi-0.dtd"
   xmlns:inkscape="http://www.inkscape.org/namespaces/inkscape"
   sodipodi:docname="dataencap.svg"
   inkscape:version="0.92.4 5da689c313, 2019-01-14"
   sodipodi:version="0.32"
   id="svg2"
   height="0.56060767in"
   width="4.4404016in"
   version="1.1">
  <defs
     id="defs3" />
  <sodipodi:namedview
     inkscape:window-y="42"
     inkscape:window-x="302"
     inkscape:window-height="1458"
     inkscape:window-width="2491"
     inkscape:grid-bbox="false"
     gridtolerance="1.0000000mm"
     showgrid="false"
     inkscape:current-layer="text2103"
     inkscape:document-units="px"
     inkscape:cy="54.656582"
     inkscape:cx="391.48311"
     inkscape:zoom="1.979899"
     inkscape:pageshadow="2"
     inkscape:pageopacity="0.0"
     borderopacity="1.0"
     bordercolor="#666666"
     pagecolor="#ffffff"
     id="base"
     fit-margin-top="0"
     fit-margin-left="0"
     fit-margin-right="0"
     fit-margin-bottom="0"
     inkscape:window-maximized="0">
    <inkscape:grid
       id="GridFromPre046Settings"
       type="xygrid"
       originx="-162.20515"
       originy="-879.05805"
       spacingx="1.0666667"
       spacingy="1.0666667"
       color="#3f3fff"
       empcolor="#3f3fff"
       opacity="0.15"
       empopacity="0.38"
       empspacing="5" />
  </sodipodi:namedview>
  <metadata
     id="metadata4">
    <rdf:RDF>
      <cc:Work
         rdf:about="">
        <dc:format>image/svg+xml</dc:format>
        <dc:type
           rdf:resource="http://purl.org/dc/dcmitype/StillImage" />
        <dc:title></dc:title>
      </cc:Work>
    </rdf:RDF>
  </metadata>
  <g
     id="layer1"
     inkscape:groupmode="layer"
     inkscape:label="Layer 1"
     transform="translate(-162.20515,-123.12362)">
    <rect
       y="150.03241"
       x="414.08069"
       height="0.00073690858"
       width="0.0028696468"
       id="rect2089"
       style="fill:none;fill-opacity:1;stroke:#000000;stroke-linecap:butt;stroke-linejoin:round;stroke-miterlimit:4;stroke-dashoffset:0;stroke-opacity:1" />
    <g
       aria-label="Data"
       style="font-style:italic;font-variant:normal;font-weight:bold;font-stretch:normal;line-height:0%;font-family:sans-serif;writing-mode:lr-tb;text-anchor:start;fill:#000000;fill-opacity:1;stroke:none;stroke-width:1px;stroke-linecap:butt;stroke-linejoin:miter;stroke-opacity:1"
       id="text2083">
      <path
         d="m 511.03261,159.33853 h -5.82994 l 3.62813,-18.68073 h 4.99907 q 7.56092,0 7.56092,6.37001 0,2.14641 -0.74779,4.62517 -0.74778,2.46492 -2.10487,4.1959 -1.34324,1.71713 -3.25424,2.60339 -1.911,0.88626 -4.25128,0.88626 z m 6.18998,-11.75681 q 0,-1.99409 -1.02474,-2.88035 -1.01089,-0.88626 -3.04653,-0.88626 h -0.84471 l -2.40953,12.36611 h 1.41248 q 4.41746,0 5.66377,-6.32846 0.24926,-1.28785 0.24926,-2.27104 z"
         style="font-style:italic;font-variant:normal;font-weight:bold;font-stretch:normal;font-size:28.36036873px;line-height:1;font-family:'Liberation Mono';-inkscape-font-specification:'Liberation Mono Bold Italic'"
         id="path891"
         inkscape:connector-curvature="0" />
      <path
         d="m 526.37601,159.61549 q -1.85561,0 -2.8665,-0.85857 -0.99705,-0.85856 -0.99705,-2.49261 0,-0.54006 0.12463,-1.16322 0.94166,-4.72211 6.7162,-4.79135 l 3.10192,-0.0554 0.13848,-0.76163 q 0.13848,-0.6647 0.13848,-1.16322 0,-1.73098 -1.6202,-1.73098 -0.9832,0 -1.56481,0.49852 -0.58161,0.49853 -0.9278,1.6202 l -4.01587,-0.19387 q 1.5648,-4.44515 7.15933,-4.44515 2.39567,0 3.62813,1.01089 1.24631,0.99704 1.24631,2.94959 0,0.637 -0.15233,1.44017 l -1.05244,5.42835 q -0.15232,0.76163 -0.15232,1.17707 0,0.51237 0.20772,0.77548 0.22156,0.26311 0.74778,0.26311 0.44313,0 0.87241,-0.0831 l -0.40159,2.10487 q -0.36004,0.0831 -0.65084,0.15233 -0.29081,0.0692 -0.58161,0.11078 -0.27696,0.0415 -0.59546,0.0692 -0.3185,0.0277 -0.73393,0.0277 -1.31555,0 -1.89716,-0.56777 -0.58161,-0.5816 -0.58161,-1.70328 l 0.0277,-0.56776 h -0.0831 q -1.19091,1.5648 -2.45107,2.2572 -1.26015,0.69239 -2.78341,0.69239 z m 5.64992,-7.21472 -1.85561,0.0277 q -1.45403,0.0277 -2.14642,0.38774 -0.69239,0.36004 -1.02474,1.14937 -0.3185,0.77548 -0.3185,1.57865 0,1.35709 1.32939,1.35709 1.35709,0 2.46492,-1.08013 1.10783,-1.09398 1.41248,-2.65878 z"
         style="font-style:italic;font-variant:normal;font-weight:bold;font-stretch:normal;font-size:28.36036873px;line-height:1;font-family:'Liberation Mono';-inkscape-font-specification:'Liberation Mono Bold Italic'"
         id="path893"
         inkscape:connector-curvature="0" />
      <path
         d="m 544.30896,146.98626 h -2.31259 l 0.51237,-2.63109 h 2.50646 l 1.98024,-3.90509 h 2.43722 l -0.76163,3.90509 h 5.33141 l -0.51237,2.63109 h -5.33141 l -1.42633,7.33935 q -0.15233,0.83087 -0.15233,1.14938 0,0.74778 0.49852,1.08013 0.49853,0.3185 1.57866,0.3185 1.70328,0 3.60044,-0.37389 l -0.49853,2.57569 q -0.54006,0.0831 -1.06628,0.16618 -0.51237,0.0831 -1.06628,0.13848 -0.54007,0.0692 -1.14937,0.0969 -0.59546,0.0415 -1.3017,0.0415 -2.24335,0 -3.40657,-0.78932 -1.16322,-0.78933 -1.16322,-2.49261 0,-0.40159 0.0692,-0.87242 0.0692,-0.47082 1.63405,-8.37794 z"
         style="font-style:italic;font-variant:normal;font-weight:bold;font-stretch:normal;font-size:28.36036873px;line-height:1;font-family:'Liberation Mono';-inkscape-font-specification:'Liberation Mono Bold Italic'"
         id="path895"
         inkscape:connector-curvature="0" />
      <path
         d="m 560.41399,159.61549 q -1.85561,0 -2.8665,-0.85857 -0.99704,-0.85856 -0.99704,-2.49261 0,-0.54006 0.12463,-1.16322 0.94165,-4.72211 6.7162,-4.79135 l 3.10191,-0.0554 0.13848,-0.76163 q 0.13848,-0.6647 0.13848,-1.16322 0,-1.73098 -1.6202,-1.73098 -0.98319,0 -1.5648,0.49852 -0.58161,0.49853 -0.92781,1.6202 l -4.01587,-0.19387 q 1.56481,-4.44515 7.15933,-4.44515 2.39568,0 3.62814,1.01089 1.2463,0.99704 1.2463,2.94959 0,0.637 -0.15233,1.44017 l -1.05243,5.42835 q -0.15233,0.76163 -0.15233,1.17707 0,0.51237 0.20772,0.77548 0.22157,0.26311 0.74778,0.26311 0.44313,0 0.87242,-0.0831 l -0.40159,2.10487 q -0.36004,0.0831 -0.65085,0.15233 -0.2908,0.0692 -0.58161,0.11078 -0.27695,0.0415 -0.59545,0.0692 -0.31851,0.0277 -0.73394,0.0277 -1.31554,0 -1.89715,-0.56777 -0.58161,-0.5816 -0.58161,-1.70328 l 0.0277,-0.56776 h -0.0831 q -1.19092,1.5648 -2.45107,2.2572 -1.26015,0.69239 -2.78342,0.69239 z m 5.64992,-7.21472 -1.85561,0.0277 q -1.45402,0.0277 -2.14641,0.38774 -0.6924,0.36004 -1.02474,1.14937 -0.3185,0.77548 -0.3185,1.57865 0,1.35709 1.32939,1.35709 1.35709,0 2.46491,-1.08013 1.10783,-1.09398 1.41248,-2.65878 z"
         style="font-style:italic;font-variant:normal;font-weight:bold;font-stretch:normal;font-size:28.36036873px;line-height:1;font-family:'Liberation Mono';-inkscape-font-specification:'Liberation Mono Bold Italic'"
         id="path897"
         inkscape:connector-curvature="0" />
    </g>
    <g
       aria-label="TFTP"
       style="font-style:normal;font-variant:normal;font-weight:normal;font-stretch:normal;line-height:0%;font-family:'Courier 10 Pitch';writing-mode:lr-tb;text-anchor:start;fill:#000000;fill-opacity:1;stroke:none;stroke-width:1px;stroke-linecap:butt;stroke-linejoin:miter;stroke-opacity:1"
       id="text2093">
      <path
         d="m 434.69821,142.48801 v 17.35954 h -2.76472 v -17.35954 h -6.44616 v -2.26998 h 15.65705 v 2.26998 z"
         style="font-style:normal;font-variant:normal;font-weight:normal;font-stretch:normal;font-size:29.80078506px;line-height:1.25;font-family:'Liberation Mono';-inkscape-font-specification:'Liberation Mono'"
         id="path882"
         inkscape:connector-curvature="0" />
      <path
         d="m 447.86702,142.48801 v 7.18828 h 9.83659 v 2.29908 h -9.83659 v 7.87218 h -2.77927 v -19.62952 h 12.96508 v 2.26998 z"
         style="font-style:normal;font-variant:normal;font-weight:normal;font-stretch:normal;font-size:29.80078506px;line-height:1.25;font-family:'Liberation Mono';-inkscape-font-specification:'Liberation Mono'"
         id="path884"
         inkscape:connector-curvature="0" />
      <path
         d="m 470.46498,142.48801 v 17.35954 h -2.76472 v -17.35954 h -6.44617 v -2.26998 h 15.65705 v 2.26998 z"
         style="font-style:normal;font-variant:normal;font-weight:normal;font-stretch:normal;font-size:29.80078506px;line-height:1.25;font-family:'Liberation Mono';-inkscape-font-specification:'Liberation Mono'"
         id="path886"
         inkscape:connector-curvature="0" />
      <path
         d="m 494.31434,146.0967 q 0,1.81889 -0.87307,3.24491 -0.85852,1.42601 -2.4737,2.22633 -1.60063,0.80031 -3.71055,0.80031 h -4.08888 v 7.4793 h -2.77927 v -19.62952 h 6.69354 q 3.46317,0 5.34027,1.55697 1.89166,1.54243 1.89166,4.3217 z m -2.79383,0.0437 q 0,-3.69599 -4.77278,-3.69599 h -3.57959 v 7.72666 h 3.696 q 2.16812,0 3.40497,-1.06223 1.2514,-1.06224 1.2514,-2.96844 z"
         style="font-style:normal;font-variant:normal;font-weight:normal;font-stretch:normal;font-size:29.80078506px;line-height:1.25;font-family:'Liberation Mono';-inkscape-font-specification:'Liberation Mono'"
         id="path888"
         inkscape:connector-curvature="0" />
    </g>
    <g
       aria-label="UDP"
       style="font-style:normal;font-variant:normal;font-weight:normal;font-stretch:normal;line-height:0%;font-family:'Courier 10 Pitch';writing-mode:lr-tb;text-anchor:start;fill:#000000;fill-opacity:1;stroke:none;stroke-width:1px;stroke-linecap:butt;stroke-linejoin:miter;stroke-opacity:1"
       id="text2099">
      <path
         d="m 379.86791,152.57196 q 0,3.88516 -1.65883,5.6604 -1.65884,1.76069 -5.32573,1.76069 -3.55048,0 -5.15111,-1.70249 -1.58608,-1.71703 -1.58608,-5.45668 v -12.76137 h 2.77927 v 12.38304 q 0,2.96843 0.84397,4.13253 0.85852,1.14954 3.0994,1.14954 2.34274,0 3.28856,-1.1932 0.94583,-1.19319 0.94583,-4.27804 v -12.19387 h 2.76472 z"
         style="font-style:normal;font-variant:normal;font-weight:normal;font-stretch:normal;font-size:29.80078506px;line-height:1.25;font-family:'Liberation Mono';-inkscape-font-specification:'Liberation Mono'"
         id="path875"
         inkscape:connector-curvature="0" />
      <path
         d="m 398.33334,149.69083 q 0,4.81643 -2.24088,7.42109 -2.22633,2.59011 -6.38796,2.59011 h -5.38394 v -19.62952 h 4.52542 q 4.78733,0 7.13007,2.40094 2.35729,2.38639 2.35729,7.21738 z m -2.79383,0 q 0,-3.84151 -1.60063,-5.58765 -1.60062,-1.76069 -5.07835,-1.76069 h -1.76069 v 15.08955 h 2.35729 q 3.08484,0 4.58361,-1.9353 1.49877,-1.93531 1.49877,-5.80591 z"
         style="font-style:normal;font-variant:normal;font-weight:normal;font-stretch:normal;font-size:29.80078506px;line-height:1.25;font-family:'Liberation Mono';-inkscape-font-specification:'Liberation Mono'"
         id="path877"
         inkscape:connector-curvature="0" />
      <path
         d="m 416.12941,145.95118 q 0,1.81889 -0.87307,3.24491 -0.85852,1.42601 -2.4737,2.22632 -1.60063,0.80032 -3.71054,0.80032 h -4.08888 v 7.4793 h -2.77927 v -19.62952 h 6.69353 q 3.46318,0 5.34028,1.55697 1.89165,1.54242 1.89165,4.3217 z m -2.79382,0.0437 q 0,-3.696 -4.77279,-3.696 h -3.57958 v 7.72667 h 3.69599 q 2.16813,0 3.40498,-1.06223 1.2514,-1.06224 1.2514,-2.96844 z"
         style="font-style:normal;font-variant:normal;font-weight:normal;font-stretch:normal;font-size:29.80078506px;line-height:1.25;font-family:'Liberation Mono';-inkscape-font-specification:'Liberation Mono'"
         id="path879"
         inkscape:connector-curvature="0" />
    </g>
    <g
       aria-label="IP"
       style="font-style:normal;font-variant:normal;font-weight:normal;font-stretch:normal;line-height:0%;font-family:'Courier 10 Pitch';writing-mode:lr-tb;text-anchor:start;fill:#000000;fill-opacity:1;stroke:none;stroke-width:1px;stroke-linecap:butt;stroke-linejoin:miter;stroke-opacity:1"
       id="text2103">
      <path
         d="m 324.58417,140.21803 h 11.97561 v 2.26998 h -4.59817 v 15.08956 h 4.59817 v 2.26998 h -11.97561 v -2.26998 h 4.59817 v -15.08956 h -4.59817 z"
         style="font-style:normal;font-variant:normal;font-weight:normal;font-stretch:normal;font-size:29.80078506px;line-height:1.25;font-family:'Liberation Mono';-inkscape-font-specification:'Liberation Mono'"
         id="path870"
         inkscape:connector-curvature="0" />
      <path
         d="m 355.81097,146.0967 q 0,1.81889 -0.87307,3.24491 -0.85852,1.42601 -2.4737,2.22633 -1.60063,0.80031 -3.71054,0.80031 h -4.08888 v 7.4793 h -2.77927 v -19.62952 h 6.69353 q 3.46318,0 5.34028,1.55697 1.89165,1.54243 1.89165,4.3217 z m -2.79382,0.0437 q 0,-3.69599 -4.77279,-3.69599 h -3.57958 v 7.72666 h 3.69599 q 2.16813,0 3.40498,-1.06223 1.2514,-1.06224 1.2514,-2.96844 z"
         style="font-style:normal;font-variant:normal;font-weight:normal;font-stretch:normal;font-size:29.80078506px;line-height:1.25;font-family:'Liberation Mono';-inkscape-font-specification:'Liberation Mono'"
         id="path872"
         inkscape:connector-curvature="0" />
    </g>
    <g
       aria-label="Ethernet"
       style="font-style:normal;font-variant:normal;font-weight:normal;font-stretch:normal;line-height:0%;font-family:'Courier 10 Pitch';writing-mode:lr-tb;text-anchor:start;fill:#000000;fill-opacity:1;stroke:none;stroke-width:1px;stroke-linecap:butt;stroke-linejoin:miter;stroke-opacity:1"
       id="text2107">
      <path
         d="m 172.50614,160.68423 v -19.62952 h 13.37252 v 2.26999 h -10.59325 v 6.14059 h 9.72018 v 2.24088 h -9.72018 v 6.70808 h 11.18985 v 2.26998 z"
         style="font-style:normal;font-variant:normal;font-weight:normal;font-stretch:normal;font-size:29.80078506px;line-height:1.25;font-family:'Liberation Mono';-inkscape-font-specification:'Liberation Mono'"
         id="path853"
         inkscape:connector-curvature="0" />
      <path
         d="m 190.79695,147.00614 v -2.06627 h 2.4737 l 0.84397,-4.10342 h 1.74614 v 4.10342 h 6.2861 v 2.06627 h -6.2861 v 9.48736 q 0,1.14954 0.61115,1.70249 0.6257,0.55294 2.03716,0.55294 1.94985,0 4.32169,-0.49474 v 1.99351 q -2.45914,0.66935 -4.87464,0.66935 -2.35728,0 -3.53593,-0.98948 -1.17864,-1.00403 -1.17864,-3.1576 v -9.76383 z"
         style="font-style:normal;font-variant:normal;font-weight:normal;font-stretch:normal;font-size:29.80078506px;line-height:1.25;font-family:'Liberation Mono';-inkscape-font-specification:'Liberation Mono'"
         id="path855"
         inkscape:connector-curvature="0" />
      <path
         d="m 208.60758,139.09031 h 2.63376 v 5.67495 q 0,0.85852 -0.13096,2.86658 h 0.0437 q 1.52787,-2.98299 4.93285,-2.98299 5.0929,0 5.0929,5.54399 v 10.49139 h -2.63376 v -10.11305 q 0,-1.97896 -0.77121,-2.93934 -0.75666,-0.96038 -2.43004,-0.96038 -1.80435,0 -2.96844,1.32416 -1.14954,1.3096 -1.14954,3.56503 v 9.12358 h -2.61921 z"
         style="font-style:normal;font-variant:normal;font-weight:normal;font-stretch:normal;font-size:29.80078506px;line-height:1.25;font-family:'Liberation Mono';-inkscape-font-specification:'Liberation Mono'"
         id="path857"
         inkscape:connector-curvature="0" />
      <path
         d="m 228.48447,153.365 q 0,2.64831 1.16409,4.14708 1.17864,1.49877 3.21581,1.49877 1.49877,0 2.61921,-0.64025 1.13499,-0.6548 1.51332,-1.77524 l 2.29908,0.6548 q -0.64025,1.80434 -2.35729,2.76472 -1.70248,0.96038 -4.07432,0.96038 -3.43408,0 -5.28208,-2.13902 -1.84799,-2.13902 -1.84799,-6.12604 0,-3.88516 1.80434,-5.96598 1.8189,-2.09537 5.23842,-2.09537 3.41952,0 5.18022,2.08082 1.76069,2.08081 1.76069,6.2861 v 0.34923 z m 4.32169,-6.78084 q -1.94985,0 -3.08484,1.2805 -1.13499,1.26595 -1.20775,3.49228 h 8.49788 q -0.40743,-4.77278 -4.20529,-4.77278 z"
         style="font-style:normal;font-variant:normal;font-weight:normal;font-stretch:normal;font-size:29.80078506px;line-height:1.25;font-family:'Liberation Mono';-inkscape-font-specification:'Liberation Mono'"
         id="path859"
         inkscape:connector-curvature="0" />
      <path
         d="m 256.88834,147.32627 q -1.62973,-0.27648 -3.08485,-0.27648 -2.34273,0 -3.7833,1.76069 -1.44056,1.7607 -1.44056,4.48176 v 7.39199 h -2.61921 v -10.20036 q 0,-1.10589 -0.20372,-2.60466 -0.18917,-1.49877 -0.55295,-2.93934 h 2.48825 q 0.58205,2.00807 0.69846,3.6378 h 0.0728 q 0.72755,-1.62973 1.42601,-2.3864 0.69846,-0.77121 1.65883,-1.14954 0.96038,-0.39288 2.34274,-0.39288 1.51332,0 2.99754,0.24737 z"
         style="font-style:normal;font-variant:normal;font-weight:normal;font-stretch:normal;font-size:29.80078506px;line-height:1.25;font-family:'Liberation Mono';-inkscape-font-specification:'Liberation Mono'"
         id="path861"
         inkscape:connector-curvature="0" />
      <path
         d="m 272.19616,160.68423 v -10.11305 q 0,-1.97896 -0.77121,-2.93934 -0.75666,-0.96038 -2.43005,-0.96038 -1.80434,0 -2.96843,1.32416 -1.14954,1.3096 -1.14954,3.56503 v 9.12358 h -2.61921 v -12.38304 q 0,-2.75017 -0.0873,-3.36132 h 2.4737 q 0.0145,0.0728 0.0291,0.39289 0.0146,0.32012 0.0291,0.74211 0.0291,0.40743 0.0582,1.55697 h 0.0437 q 1.52787,-2.98299 5.0347,-2.98299 2.51735,0 3.7542,1.36781 1.23685,1.35326 1.23685,4.17618 v 10.49139 z"
         style="font-style:normal;font-variant:normal;font-weight:normal;font-stretch:normal;font-size:29.80078506px;line-height:1.25;font-family:'Liberation Mono';-inkscape-font-specification:'Liberation Mono'"
         id="path863"
         inkscape:connector-curvature="0" />
      <path
         d="m 282.13461,153.365 q 0,2.64831 1.16409,4.14708 1.17865,1.49877 3.21581,1.49877 1.49877,0 2.61921,-0.64025 1.13499,-0.6548 1.51332,-1.77524 l 2.29909,0.6548 q -0.64026,1.80434 -2.35729,2.76472 -1.70249,0.96038 -4.07433,0.96038 -3.43407,0 -5.28207,-2.13902 -1.848,-2.13902 -1.848,-6.12604 0,-3.88516 1.80434,-5.96598 1.8189,-2.09537 5.23842,-2.09537 3.41953,0 5.18022,2.08082 1.76069,2.08081 1.76069,6.2861 v 0.34923 z m 4.3217,-6.78084 q -1.94986,0 -3.08485,1.2805 -1.13499,1.26595 -1.20775,3.49228 h 8.49788 q -0.40743,-4.77278 -4.20528,-4.77278 z"
         style="font-style:normal;font-variant:normal;font-weight:normal;font-stretch:normal;font-size:29.80078506px;line-height:1.25;font-family:'Liberation Mono';-inkscape-font-specification:'Liberation Mono'"
         id="path865"
         inkscape:connector-curvature="0" />
      <path
         d="m 298.09724,147.00614 v -2.06627 h 2.4737 l 0.84397,-4.10342 h 1.74614 v 4.10342 h 6.2861 v 2.06627 h -6.2861 v 9.48736 q 0,1.14954 0.61114,1.70249 0.62571,0.55294 2.03717,0.55294 1.94985,0 4.32169,-0.49474 v 1.99351 q -2.45914,0.66935 -4.87464,0.66935 -2.35728,0 -3.53593,-0.98948 -1.17864,-1.00403 -1.17864,-3.1576 v -9.76383 z"
         style="font-style:normal;font-variant:normal;font-weight:normal;font-stretch:normal;font-size:29.80078506px;line-height:1.25;font-family:'Liberation Mono';-inkscape-font-specification:'Liberation Mono'"
         id="path867"
         inkscape:connector-curvature="0" />
    </g>
    <path
       id="rect2081"
       d="m 318.79106,126.40323 h 266.55371 v 47.25912 H 318.79106 Z"
       style="fill:none;fill-opacity:1;stroke:#000000;stroke-width:0.68892628;stroke-linecap:butt;stroke-linejoin:round;stroke-miterlimit:4;stroke-dashoffset:0;stroke-opacity:1"
       inkscape:connector-curvature="0" />
    <path
       id="path2137"
       d="m 499.66782,135.21409 h 76.95476 v 29.63739 h -76.95476 z"
       style="fill:none;fill-opacity:1;stroke:#000000;stroke-width:1.6119343;stroke-linecap:butt;stroke-linejoin:round;stroke-miterlimit:4;stroke-dashoffset:0;stroke-opacity:1"
       inkscape:connector-curvature="0" />
    <path
       id="path2135"
       d="m 361.03374,129.22428 h 221.79763 v 41.617 H 361.03374 Z"
       style="fill:none;fill-opacity:1;stroke:#000000;stroke-width:0.68892628;stroke-linecap:butt;stroke-linejoin:round;stroke-miterlimit:4;stroke-dashoffset:0;stroke-opacity:1"
       inkscape:connector-curvature="0" />
    <path
       id="path2133"
       d="m 421.00019,132.13431 h 158.75212 v 35.79695 H 421.00019 Z"
       style="fill:none;fill-opacity:1;stroke:#000000;stroke-width:0.68892628;stroke-linecap:butt;stroke-linejoin:round;stroke-miterlimit:4;stroke-dashoffset:0;stroke-opacity:1"
       inkscape:connector-curvature="0" />
    <path
       id="path2131"
       d="m 162.54961,123.46808 h 425.58963 v 53.12941 H 162.54961 Z"
       style="fill:none;fill-opacity:1;stroke:#000000;stroke-width:0.68892628;stroke-linecap:butt;stroke-linejoin:round;stroke-miterlimit:4;stroke-dashoffset:0;stroke-opacity:1"
       inkscape:connector-curvature="0" />
  </g>
</svg>
